<mxfile host="Electron" agent="Mozilla/5.0 (Windows NT 10.0; Win64; x64) AppleWebKit/537.36 (KHTML, like Gecko) draw.io/27.0.9 Chrome/134.0.6998.205 Electron/35.4.0 Safari/537.36" version="27.0.9">
  <diagram name="Page-1" id="_TQ19jslGxmmg9WjQRDo">
    <mxGraphModel dx="2081" dy="1051" grid="1" gridSize="10" guides="1" tooltips="1" connect="1" arrows="1" fold="1" page="1" pageScale="1" pageWidth="827" pageHeight="1169" math="0" shadow="0">
      <root>
        <mxCell id="0" />
        <mxCell id="1" parent="0" />
        <mxCell id="GVmTGVb1C7qQI3XdJkDP-3" style="edgeStyle=orthogonalEdgeStyle;rounded=0;orthogonalLoop=1;jettySize=auto;html=1;entryX=0;entryY=0.5;entryDx=0;entryDy=0;" parent="1" source="GVmTGVb1C7qQI3XdJkDP-1" target="GVmTGVb1C7qQI3XdJkDP-2" edge="1">
          <mxGeometry relative="1" as="geometry" />
        </mxCell>
        <mxCell id="GVmTGVb1C7qQI3XdJkDP-1" value="Start" style="ellipse;whiteSpace=wrap;html=1;fillColor=#d5e8d4;strokeColor=#82b366;" parent="1" vertex="1">
          <mxGeometry x="30" y="90" width="120" height="80" as="geometry" />
        </mxCell>
        <mxCell id="GVmTGVb1C7qQI3XdJkDP-5" style="edgeStyle=orthogonalEdgeStyle;rounded=0;orthogonalLoop=1;jettySize=auto;html=1;entryX=0;entryY=0.5;entryDx=0;entryDy=0;" parent="1" source="GVmTGVb1C7qQI3XdJkDP-2" target="GVmTGVb1C7qQI3XdJkDP-4" edge="1">
          <mxGeometry relative="1" as="geometry" />
        </mxCell>
        <mxCell id="GVmTGVb1C7qQI3XdJkDP-2" value="Landing Page" style="rounded=1;whiteSpace=wrap;html=1;fillColor=#dae8fc;strokeColor=#6c8ebf;" parent="1" vertex="1">
          <mxGeometry x="190" y="100" width="120" height="60" as="geometry" />
        </mxCell>
        <mxCell id="GVmTGVb1C7qQI3XdJkDP-7" style="edgeStyle=orthogonalEdgeStyle;rounded=0;orthogonalLoop=1;jettySize=auto;html=1;" parent="1" source="GVmTGVb1C7qQI3XdJkDP-4" target="GVmTGVb1C7qQI3XdJkDP-6" edge="1">
          <mxGeometry relative="1" as="geometry" />
        </mxCell>
        <mxCell id="GVmTGVb1C7qQI3XdJkDP-8" value="YES" style="edgeLabel;html=1;align=center;verticalAlign=middle;resizable=0;points=[];" parent="GVmTGVb1C7qQI3XdJkDP-7" vertex="1" connectable="0">
          <mxGeometry x="-0.1667" y="1" relative="1" as="geometry">
            <mxPoint as="offset" />
          </mxGeometry>
        </mxCell>
        <mxCell id="GVmTGVb1C7qQI3XdJkDP-4" value="Click Start" style="rhombus;whiteSpace=wrap;html=1;rounded=1;fillColor=#ffe6cc;strokeColor=#d79b00;" parent="1" vertex="1">
          <mxGeometry x="350" y="80" width="106" height="100" as="geometry" />
        </mxCell>
        <mxCell id="GVmTGVb1C7qQI3XdJkDP-10" style="edgeStyle=orthogonalEdgeStyle;rounded=0;orthogonalLoop=1;jettySize=auto;html=1;entryX=0.5;entryY=0;entryDx=0;entryDy=0;" parent="1" source="GVmTGVb1C7qQI3XdJkDP-6" target="GVmTGVb1C7qQI3XdJkDP-9" edge="1">
          <mxGeometry relative="1" as="geometry" />
        </mxCell>
        <mxCell id="GVmTGVb1C7qQI3XdJkDP-6" value="Confirm NHS" style="rounded=1;whiteSpace=wrap;html=1;fillColor=#dae8fc;strokeColor=#6c8ebf;" parent="1" vertex="1">
          <mxGeometry x="343" y="240" width="120" height="60" as="geometry" />
        </mxCell>
        <mxCell id="GVmTGVb1C7qQI3XdJkDP-13" style="edgeStyle=orthogonalEdgeStyle;rounded=0;orthogonalLoop=1;jettySize=auto;html=1;entryX=0;entryY=0.5;entryDx=0;entryDy=0;" parent="1" source="GVmTGVb1C7qQI3XdJkDP-9" target="GVmTGVb1C7qQI3XdJkDP-12" edge="1">
          <mxGeometry relative="1" as="geometry">
            <mxPoint x="540" y="400" as="targetPoint" />
          </mxGeometry>
        </mxCell>
        <mxCell id="GVmTGVb1C7qQI3XdJkDP-14" value="SEARCH" style="edgeLabel;html=1;align=center;verticalAlign=middle;resizable=0;points=[];" parent="GVmTGVb1C7qQI3XdJkDP-13" vertex="1" connectable="0">
          <mxGeometry x="0.1563" relative="1" as="geometry">
            <mxPoint x="-13" as="offset" />
          </mxGeometry>
        </mxCell>
        <mxCell id="GVmTGVb1C7qQI3XdJkDP-16" style="edgeStyle=orthogonalEdgeStyle;rounded=0;orthogonalLoop=1;jettySize=auto;html=1;entryX=0.5;entryY=0;entryDx=0;entryDy=0;" parent="1" source="GVmTGVb1C7qQI3XdJkDP-9" target="GVmTGVb1C7qQI3XdJkDP-15" edge="1">
          <mxGeometry relative="1" as="geometry" />
        </mxCell>
        <mxCell id="GVmTGVb1C7qQI3XdJkDP-17" value="I Dont Kow it" style="edgeLabel;html=1;align=center;verticalAlign=middle;resizable=0;points=[];" parent="GVmTGVb1C7qQI3XdJkDP-16" vertex="1" connectable="0">
          <mxGeometry x="-0.1143" y="2" relative="1" as="geometry">
            <mxPoint as="offset" />
          </mxGeometry>
        </mxCell>
        <mxCell id="GVmTGVb1C7qQI3XdJkDP-9" value="NHS Number" style="rhombus;whiteSpace=wrap;html=1;rounded=1;fillColor=#ffe6cc;strokeColor=#d79b00;" parent="1" vertex="1">
          <mxGeometry x="350" y="350" width="106" height="100" as="geometry" />
        </mxCell>
        <mxCell id="GVmTGVb1C7qQI3XdJkDP-20" style="edgeStyle=orthogonalEdgeStyle;rounded=0;orthogonalLoop=1;jettySize=auto;html=1;entryX=0;entryY=0.5;entryDx=0;entryDy=0;" parent="1" source="GVmTGVb1C7qQI3XdJkDP-12" target="GVmTGVb1C7qQI3XdJkDP-19" edge="1">
          <mxGeometry relative="1" as="geometry" />
        </mxCell>
        <mxCell id="GVmTGVb1C7qQI3XdJkDP-12" value="Confirm Details" style="rounded=1;whiteSpace=wrap;html=1;fillColor=#dae8fc;strokeColor=#6c8ebf;" parent="1" vertex="1">
          <mxGeometry x="740" y="370" width="120" height="60" as="geometry" />
        </mxCell>
        <mxCell id="GVmTGVb1C7qQI3XdJkDP-18" style="edgeStyle=orthogonalEdgeStyle;rounded=0;orthogonalLoop=1;jettySize=auto;html=1;entryX=0.5;entryY=1;entryDx=0;entryDy=0;" parent="1" source="GVmTGVb1C7qQI3XdJkDP-15" target="GVmTGVb1C7qQI3XdJkDP-12" edge="1">
          <mxGeometry relative="1" as="geometry" />
        </mxCell>
        <mxCell id="GVmTGVb1C7qQI3XdJkDP-15" value="Provide Search" style="rounded=1;whiteSpace=wrap;html=1;fillColor=#dae8fc;strokeColor=#6c8ebf;" parent="1" vertex="1">
          <mxGeometry x="343" y="520" width="120" height="60" as="geometry" />
        </mxCell>
        <mxCell id="GVmTGVb1C7qQI3XdJkDP-26" style="edgeStyle=orthogonalEdgeStyle;rounded=0;orthogonalLoop=1;jettySize=auto;html=1;exitX=0.5;exitY=1;exitDx=0;exitDy=0;entryX=0.5;entryY=1;entryDx=0;entryDy=0;" parent="1" source="GVmTGVb1C7qQI3XdJkDP-19" target="GVmTGVb1C7qQI3XdJkDP-15" edge="1">
          <mxGeometry relative="1" as="geometry">
            <mxPoint x="960" y="500" as="targetPoint" />
            <Array as="points">
              <mxPoint x="940" y="610" />
              <mxPoint x="403" y="610" />
            </Array>
          </mxGeometry>
        </mxCell>
        <mxCell id="GVmTGVb1C7qQI3XdJkDP-29" value="No" style="edgeLabel;html=1;align=center;verticalAlign=middle;resizable=0;points=[];" parent="GVmTGVb1C7qQI3XdJkDP-26" vertex="1" connectable="0">
          <mxGeometry x="0.4984" y="2" relative="1" as="geometry">
            <mxPoint x="108" y="-2" as="offset" />
          </mxGeometry>
        </mxCell>
        <mxCell id="GVmTGVb1C7qQI3XdJkDP-50" style="edgeStyle=orthogonalEdgeStyle;rounded=0;orthogonalLoop=1;jettySize=auto;html=1;exitX=1;exitY=1;exitDx=0;exitDy=0;entryX=0;entryY=0.5;entryDx=0;entryDy=0;" parent="1" source="GVmTGVb1C7qQI3XdJkDP-19" target="GVmTGVb1C7qQI3XdJkDP-22" edge="1">
          <mxGeometry relative="1" as="geometry">
            <Array as="points">
              <mxPoint x="967" y="480" />
            </Array>
          </mxGeometry>
        </mxCell>
        <mxCell id="GVmTGVb1C7qQI3XdJkDP-59" value="YES" style="edgeLabel;html=1;align=center;verticalAlign=middle;resizable=0;points=[];" parent="GVmTGVb1C7qQI3XdJkDP-50" vertex="1" connectable="0">
          <mxGeometry x="-0.139" y="2" relative="1" as="geometry">
            <mxPoint x="1" as="offset" />
          </mxGeometry>
        </mxCell>
        <mxCell id="GVmTGVb1C7qQI3XdJkDP-51" style="edgeStyle=orthogonalEdgeStyle;rounded=0;orthogonalLoop=1;jettySize=auto;html=1;exitX=1;exitY=0;exitDx=0;exitDy=0;entryX=0.5;entryY=0;entryDx=0;entryDy=0;" parent="1" source="GVmTGVb1C7qQI3XdJkDP-19" target="GVmTGVb1C7qQI3XdJkDP-36" edge="1">
          <mxGeometry relative="1" as="geometry" />
        </mxCell>
        <mxCell id="GVmTGVb1C7qQI3XdJkDP-60" value="HAVE CODE ALREADY" style="edgeLabel;html=1;align=center;verticalAlign=middle;resizable=0;points=[];" parent="GVmTGVb1C7qQI3XdJkDP-51" vertex="1" connectable="0">
          <mxGeometry x="-0.484" y="5" relative="1" as="geometry">
            <mxPoint x="1" as="offset" />
          </mxGeometry>
        </mxCell>
        <mxCell id="GVmTGVb1C7qQI3XdJkDP-19" value="Is This You?" style="rhombus;whiteSpace=wrap;html=1;rounded=1;fillColor=#ffe6cc;strokeColor=#d79b00;" parent="1" vertex="1">
          <mxGeometry x="887" y="350" width="106" height="100" as="geometry" />
        </mxCell>
        <mxCell id="GVmTGVb1C7qQI3XdJkDP-78" style="edgeStyle=orthogonalEdgeStyle;rounded=0;orthogonalLoop=1;jettySize=auto;html=1;entryX=0;entryY=0.5;entryDx=0;entryDy=0;" parent="1" source="GVmTGVb1C7qQI3XdJkDP-21" target="GVmTGVb1C7qQI3XdJkDP-77" edge="1">
          <mxGeometry relative="1" as="geometry" />
        </mxCell>
        <mxCell id="GVmTGVb1C7qQI3XdJkDP-21" value="Opt Out Decision" style="rounded=1;whiteSpace=wrap;html=1;fillColor=#dae8fc;strokeColor=#6c8ebf;" parent="1" vertex="1">
          <mxGeometry x="1760" y="370" width="120" height="60" as="geometry" />
        </mxCell>
        <mxCell id="GVmTGVb1C7qQI3XdJkDP-39" style="edgeStyle=orthogonalEdgeStyle;rounded=0;orthogonalLoop=1;jettySize=auto;html=1;entryX=0;entryY=0.5;entryDx=0;entryDy=0;" parent="1" source="GVmTGVb1C7qQI3XdJkDP-22" target="GVmTGVb1C7qQI3XdJkDP-38" edge="1">
          <mxGeometry relative="1" as="geometry" />
        </mxCell>
        <mxCell id="GVmTGVb1C7qQI3XdJkDP-22" value="Positive Confirmation" style="rounded=1;whiteSpace=wrap;html=1;fillColor=#dae8fc;strokeColor=#6c8ebf;" parent="1" vertex="1">
          <mxGeometry x="1160" y="450" width="120" height="60" as="geometry" />
        </mxCell>
        <mxCell id="GVmTGVb1C7qQI3XdJkDP-52" style="edgeStyle=orthogonalEdgeStyle;rounded=0;orthogonalLoop=1;jettySize=auto;html=1;entryX=0;entryY=0.5;entryDx=0;entryDy=0;" parent="1" source="GVmTGVb1C7qQI3XdJkDP-36" target="GVmTGVb1C7qQI3XdJkDP-21" edge="1">
          <mxGeometry relative="1" as="geometry" />
        </mxCell>
        <mxCell id="GVmTGVb1C7qQI3XdJkDP-36" value="Enter Code" style="rounded=1;whiteSpace=wrap;html=1;fillColor=#dae8fc;strokeColor=#6c8ebf;" parent="1" vertex="1">
          <mxGeometry x="1577" y="370" width="120" height="60" as="geometry" />
        </mxCell>
        <mxCell id="GVmTGVb1C7qQI3XdJkDP-42" style="edgeStyle=orthogonalEdgeStyle;rounded=0;orthogonalLoop=1;jettySize=auto;html=1;exitX=1;exitY=0;exitDx=0;exitDy=0;entryX=0;entryY=0.75;entryDx=0;entryDy=0;" parent="1" source="GVmTGVb1C7qQI3XdJkDP-38" target="GVmTGVb1C7qQI3XdJkDP-36" edge="1">
          <mxGeometry relative="1" as="geometry" />
        </mxCell>
        <mxCell id="GVmTGVb1C7qQI3XdJkDP-45" value="Email" style="edgeLabel;html=1;align=center;verticalAlign=middle;resizable=0;points=[];" parent="GVmTGVb1C7qQI3XdJkDP-42" vertex="1" connectable="0">
          <mxGeometry x="-0.346" y="3" relative="1" as="geometry">
            <mxPoint x="-9" y="3" as="offset" />
          </mxGeometry>
        </mxCell>
        <mxCell id="GVmTGVb1C7qQI3XdJkDP-43" style="edgeStyle=orthogonalEdgeStyle;rounded=0;orthogonalLoop=1;jettySize=auto;html=1;exitX=1;exitY=0.5;exitDx=0;exitDy=0;entryX=0.25;entryY=1;entryDx=0;entryDy=0;" parent="1" source="GVmTGVb1C7qQI3XdJkDP-38" target="GVmTGVb1C7qQI3XdJkDP-36" edge="1">
          <mxGeometry relative="1" as="geometry" />
        </mxCell>
        <mxCell id="GVmTGVb1C7qQI3XdJkDP-46" value="SMS" style="edgeLabel;html=1;align=center;verticalAlign=middle;resizable=0;points=[];" parent="GVmTGVb1C7qQI3XdJkDP-43" vertex="1" connectable="0">
          <mxGeometry x="-0.2422" y="-1" relative="1" as="geometry">
            <mxPoint as="offset" />
          </mxGeometry>
        </mxCell>
        <mxCell id="GVmTGVb1C7qQI3XdJkDP-44" style="edgeStyle=orthogonalEdgeStyle;rounded=0;orthogonalLoop=1;jettySize=auto;html=1;exitX=1;exitY=1;exitDx=0;exitDy=0;entryX=0.75;entryY=1;entryDx=0;entryDy=0;" parent="1" source="GVmTGVb1C7qQI3XdJkDP-38" target="GVmTGVb1C7qQI3XdJkDP-36" edge="1">
          <mxGeometry relative="1" as="geometry" />
        </mxCell>
        <mxCell id="GVmTGVb1C7qQI3XdJkDP-48" value="Letter" style="edgeLabel;html=1;align=center;verticalAlign=middle;resizable=0;points=[];" parent="GVmTGVb1C7qQI3XdJkDP-44" vertex="1" connectable="0">
          <mxGeometry x="0.0722" y="1" relative="1" as="geometry">
            <mxPoint as="offset" />
          </mxGeometry>
        </mxCell>
        <mxCell id="GVmTGVb1C7qQI3XdJkDP-38" value="Recieve Code&lt;div&gt;Via&lt;/div&gt;" style="rhombus;whiteSpace=wrap;html=1;rounded=1;fillColor=#ffe6cc;strokeColor=#d79b00;" parent="1" vertex="1">
          <mxGeometry x="1387" y="430" width="106" height="100" as="geometry" />
        </mxCell>
        <mxCell id="GVmTGVb1C7qQI3XdJkDP-57" style="edgeStyle=orthogonalEdgeStyle;rounded=0;orthogonalLoop=1;jettySize=auto;html=1;entryX=0.5;entryY=0;entryDx=0;entryDy=0;exitX=1;exitY=0.5;exitDx=0;exitDy=0;" parent="1" source="GVmTGVb1C7qQI3XdJkDP-77" target="GVmTGVb1C7qQI3XdJkDP-56" edge="1">
          <mxGeometry relative="1" as="geometry">
            <mxPoint x="2160" y="430" as="sourcePoint" />
          </mxGeometry>
        </mxCell>
        <mxCell id="GVmTGVb1C7qQI3XdJkDP-58" style="edgeStyle=orthogonalEdgeStyle;rounded=0;orthogonalLoop=1;jettySize=auto;html=1;entryX=0.5;entryY=1;entryDx=0;entryDy=0;" parent="1" source="GVmTGVb1C7qQI3XdJkDP-56" target="GVmTGVb1C7qQI3XdJkDP-1" edge="1">
          <mxGeometry relative="1" as="geometry">
            <Array as="points">
              <mxPoint x="1900" y="720" />
              <mxPoint x="90" y="720" />
            </Array>
          </mxGeometry>
        </mxCell>
        <mxCell id="GVmTGVb1C7qQI3XdJkDP-56" value="Save Preference" style="rhombus;whiteSpace=wrap;html=1;rounded=1;fillColor=#ffe6cc;strokeColor=#d79b00;" parent="1" vertex="1">
          <mxGeometry x="2107" y="510" width="106" height="100" as="geometry" />
        </mxCell>
        <mxCell id="GVmTGVb1C7qQI3XdJkDP-62" value="Pages" style="rounded=1;whiteSpace=wrap;html=1;fillColor=#dae8fc;strokeColor=#6c8ebf;" parent="1" vertex="1">
          <mxGeometry x="1960" y="90" width="120" height="60" as="geometry" />
        </mxCell>
        <mxCell id="GVmTGVb1C7qQI3XdJkDP-63" value="Decision" style="rhombus;whiteSpace=wrap;html=1;rounded=1;fillColor=#ffe6cc;strokeColor=#d79b00;" parent="1" vertex="1">
          <mxGeometry x="2107" y="70" width="106" height="100" as="geometry" />
        </mxCell>
        <mxCell id="GVmTGVb1C7qQI3XdJkDP-66" value="" style="edgeStyle=orthogonalEdgeStyle;rounded=0;orthogonalLoop=1;jettySize=auto;html=1;" parent="1" source="GVmTGVb1C7qQI3XdJkDP-64" target="GVmTGVb1C7qQI3XdJkDP-65" edge="1">
          <mxGeometry relative="1" as="geometry" />
        </mxCell>
        <mxCell id="GVmTGVb1C7qQI3XdJkDP-64" value="Start" style="ellipse;whiteSpace=wrap;html=1;fillColor=#d5e8d4;strokeColor=#82b366;" parent="1" vertex="1">
          <mxGeometry x="30" y="959" width="120" height="80" as="geometry" />
        </mxCell>
        <mxCell id="GVmTGVb1C7qQI3XdJkDP-97" style="edgeStyle=orthogonalEdgeStyle;rounded=0;orthogonalLoop=1;jettySize=auto;html=1;entryX=0;entryY=0.5;entryDx=0;entryDy=0;" parent="1" source="GVmTGVb1C7qQI3XdJkDP-65" target="GVmTGVb1C7qQI3XdJkDP-94" edge="1">
          <mxGeometry relative="1" as="geometry" />
        </mxCell>
        <mxCell id="GVmTGVb1C7qQI3XdJkDP-65" value="MSA Authentication" style="rounded=1;whiteSpace=wrap;html=1;fillColor=#dae8fc;strokeColor=#6c8ebf;" parent="1" vertex="1">
          <mxGeometry x="223" y="969" width="120" height="60" as="geometry" />
        </mxCell>
        <mxCell id="GVmTGVb1C7qQI3XdJkDP-93" style="edgeStyle=orthogonalEdgeStyle;rounded=0;orthogonalLoop=1;jettySize=auto;html=1;entryX=0;entryY=0.5;entryDx=0;entryDy=0;" parent="1" source="GVmTGVb1C7qQI3XdJkDP-67" target="GVmTGVb1C7qQI3XdJkDP-90" edge="1">
          <mxGeometry relative="1" as="geometry" />
        </mxCell>
        <mxCell id="GVmTGVb1C7qQI3XdJkDP-67" value="LDOO (Search)" style="rounded=1;whiteSpace=wrap;html=1;fillColor=#dae8fc;strokeColor=#6c8ebf;" parent="1" vertex="1">
          <mxGeometry x="740" y="969" width="120" height="60" as="geometry" />
        </mxCell>
        <mxCell id="GVmTGVb1C7qQI3XdJkDP-71" style="edgeStyle=orthogonalEdgeStyle;rounded=0;orthogonalLoop=1;jettySize=auto;html=1;entryX=0;entryY=0.5;entryDx=0;entryDy=0;" parent="1" source="GVmTGVb1C7qQI3XdJkDP-68" target="GVmTGVb1C7qQI3XdJkDP-70" edge="1">
          <mxGeometry relative="1" as="geometry" />
        </mxCell>
        <mxCell id="GVmTGVb1C7qQI3XdJkDP-76" value="Yes" style="edgeLabel;html=1;align=center;verticalAlign=middle;resizable=0;points=[];" parent="GVmTGVb1C7qQI3XdJkDP-71" vertex="1" connectable="0">
          <mxGeometry x="-0.0386" y="2" relative="1" as="geometry">
            <mxPoint as="offset" />
          </mxGeometry>
        </mxCell>
        <mxCell id="GVmTGVb1C7qQI3XdJkDP-88" style="edgeStyle=orthogonalEdgeStyle;rounded=0;orthogonalLoop=1;jettySize=auto;html=1;exitX=0.5;exitY=1;exitDx=0;exitDy=0;" parent="1" source="GVmTGVb1C7qQI3XdJkDP-68" target="GVmTGVb1C7qQI3XdJkDP-67" edge="1">
          <mxGeometry relative="1" as="geometry" />
        </mxCell>
        <mxCell id="GVmTGVb1C7qQI3XdJkDP-89" value="No" style="edgeLabel;html=1;align=center;verticalAlign=middle;resizable=0;points=[];" parent="GVmTGVb1C7qQI3XdJkDP-88" vertex="1" connectable="0">
          <mxGeometry x="0.0216" relative="1" as="geometry">
            <mxPoint as="offset" />
          </mxGeometry>
        </mxCell>
        <mxCell id="GVmTGVb1C7qQI3XdJkDP-68" value="Is This You?" style="rhombus;whiteSpace=wrap;html=1;rounded=1;fillColor=#ffe6cc;strokeColor=#d79b00;" parent="1" vertex="1">
          <mxGeometry x="1126" y="949" width="106" height="100" as="geometry" />
        </mxCell>
        <mxCell id="GVmTGVb1C7qQI3XdJkDP-74" style="edgeStyle=orthogonalEdgeStyle;rounded=0;orthogonalLoop=1;jettySize=auto;html=1;entryX=0;entryY=0.5;entryDx=0;entryDy=0;" parent="1" source="GVmTGVb1C7qQI3XdJkDP-70" target="GVmTGVb1C7qQI3XdJkDP-73" edge="1">
          <mxGeometry relative="1" as="geometry" />
        </mxCell>
        <mxCell id="GVmTGVb1C7qQI3XdJkDP-70" value="Opt Out Decision" style="rounded=1;whiteSpace=wrap;html=1;fillColor=#dae8fc;strokeColor=#6c8ebf;" parent="1" vertex="1">
          <mxGeometry x="1306" y="969" width="120" height="60" as="geometry" />
        </mxCell>
        <mxCell id="GVmTGVb1C7qQI3XdJkDP-82" style="edgeStyle=orthogonalEdgeStyle;rounded=0;orthogonalLoop=1;jettySize=auto;html=1;entryX=0.5;entryY=1;entryDx=0;entryDy=0;exitX=0.5;exitY=1;exitDx=0;exitDy=0;" parent="1" source="GVmTGVb1C7qQI3XdJkDP-84" target="GVmTGVb1C7qQI3XdJkDP-64" edge="1">
          <mxGeometry relative="1" as="geometry">
            <Array as="points">
              <mxPoint x="1709" y="1099" />
              <mxPoint x="90" y="1099" />
            </Array>
          </mxGeometry>
        </mxCell>
        <mxCell id="GVmTGVb1C7qQI3XdJkDP-85" style="edgeStyle=orthogonalEdgeStyle;rounded=0;orthogonalLoop=1;jettySize=auto;html=1;entryX=0;entryY=0.5;entryDx=0;entryDy=0;" parent="1" source="GVmTGVb1C7qQI3XdJkDP-73" target="GVmTGVb1C7qQI3XdJkDP-84" edge="1">
          <mxGeometry relative="1" as="geometry" />
        </mxCell>
        <mxCell id="GVmTGVb1C7qQI3XdJkDP-73" value="Thankyou / How to Recieve Choice" style="rounded=1;whiteSpace=wrap;html=1;fillColor=#dae8fc;strokeColor=#6c8ebf;" parent="1" vertex="1">
          <mxGeometry x="1486" y="969" width="120" height="60" as="geometry" />
        </mxCell>
        <mxCell id="GVmTGVb1C7qQI3XdJkDP-77" value="Thankyou / How to Recieve Choice" style="rounded=1;whiteSpace=wrap;html=1;fillColor=#dae8fc;strokeColor=#6c8ebf;" parent="1" vertex="1">
          <mxGeometry x="1937" y="370" width="120" height="60" as="geometry" />
        </mxCell>
        <mxCell id="GVmTGVb1C7qQI3XdJkDP-84" value="Save Preference" style="rhombus;whiteSpace=wrap;html=1;rounded=1;fillColor=#ffe6cc;strokeColor=#d79b00;" parent="1" vertex="1">
          <mxGeometry x="1656" y="949" width="106" height="100" as="geometry" />
        </mxCell>
        <mxCell id="GVmTGVb1C7qQI3XdJkDP-92" style="edgeStyle=orthogonalEdgeStyle;rounded=0;orthogonalLoop=1;jettySize=auto;html=1;entryX=0;entryY=0.5;entryDx=0;entryDy=0;" parent="1" source="GVmTGVb1C7qQI3XdJkDP-90" target="GVmTGVb1C7qQI3XdJkDP-68" edge="1">
          <mxGeometry relative="1" as="geometry" />
        </mxCell>
        <mxCell id="GVmTGVb1C7qQI3XdJkDP-90" value="Confirtm Details" style="rounded=1;whiteSpace=wrap;html=1;fillColor=#dae8fc;strokeColor=#6c8ebf;" parent="1" vertex="1">
          <mxGeometry x="926" y="969" width="120" height="60" as="geometry" />
        </mxCell>
        <mxCell id="GVmTGVb1C7qQI3XdJkDP-98" style="edgeStyle=orthogonalEdgeStyle;rounded=0;orthogonalLoop=1;jettySize=auto;html=1;entryX=0;entryY=0.5;entryDx=0;entryDy=0;" parent="1" source="GVmTGVb1C7qQI3XdJkDP-94" target="GVmTGVb1C7qQI3XdJkDP-95" edge="1">
          <mxGeometry relative="1" as="geometry" />
        </mxCell>
        <mxCell id="GVmTGVb1C7qQI3XdJkDP-94" value="HomePage" style="rounded=1;whiteSpace=wrap;html=1;fillColor=#dae8fc;strokeColor=#6c8ebf;" parent="1" vertex="1">
          <mxGeometry x="390" y="969" width="120" height="60" as="geometry" />
        </mxCell>
        <mxCell id="GVmTGVb1C7qQI3XdJkDP-99" style="edgeStyle=orthogonalEdgeStyle;rounded=0;orthogonalLoop=1;jettySize=auto;html=1;" parent="1" source="GVmTGVb1C7qQI3XdJkDP-95" target="GVmTGVb1C7qQI3XdJkDP-67" edge="1">
          <mxGeometry relative="1" as="geometry" />
        </mxCell>
        <mxCell id="GVmTGVb1C7qQI3XdJkDP-95" value="ConfigPage" style="rounded=1;whiteSpace=wrap;html=1;fillColor=#dae8fc;strokeColor=#6c8ebf;" parent="1" vertex="1">
          <mxGeometry x="550" y="969" width="120" height="60" as="geometry" />
        </mxCell>
        <mxCell id="Bte209UNFvbw5NuLRdaG-1" value="Copyright Page" style="rounded=1;whiteSpace=wrap;html=1;fillColor=#dae8fc;strokeColor=#6c8ebf;" vertex="1" parent="1">
          <mxGeometry x="710" y="100" width="120" height="60" as="geometry" />
        </mxCell>
        <mxCell id="Bte209UNFvbw5NuLRdaG-2" value="About Page&lt;span style=&quot;color: rgba(0, 0, 0, 0); font-family: monospace; font-size: 0px; text-align: start; text-wrap-mode: nowrap;&quot;&gt;%3CmxGraphModel%3E%3Croot%3E%3CmxCell%20id%3D%220%22%2F%3E%3CmxCell%20id%3D%221%22%20parent%3D%220%22%2F%3E%3CmxCell%20id%3D%222%22%20value%3D%22Copyright%20Page%22%20style%3D%22rounded%3D1%3BwhiteSpace%3Dwrap%3Bhtml%3D1%3BfillColor%3D%23dae8fc%3BstrokeColor%3D%236c8ebf%3B%22%20vertex%3D%221%22%20parent%3D%221%22%3E%3CmxGeometry%20x%3D%22520%22%20y%3D%22-130%22%20width%3D%22120%22%20height%3D%2260%22%20as%3D%22geometry%22%2F%3E%3C%2FmxCell%3E%3C%2Froot%3E%3C%2FmxGraphModel%3E&lt;/span&gt;" style="rounded=1;whiteSpace=wrap;html=1;fillColor=#dae8fc;strokeColor=#6c8ebf;" vertex="1" parent="1">
          <mxGeometry x="870" y="100" width="120" height="60" as="geometry" />
        </mxCell>
        <mxCell id="Bte209UNFvbw5NuLRdaG-3" value="Contact Page" style="rounded=1;whiteSpace=wrap;html=1;fillColor=#dae8fc;strokeColor=#6c8ebf;" vertex="1" parent="1">
          <mxGeometry x="1030" y="100" width="120" height="60" as="geometry" />
        </mxCell>
        <mxCell id="Bte209UNFvbw5NuLRdaG-4" value="Website Privacy Notice Page" style="rounded=1;whiteSpace=wrap;html=1;fillColor=#dae8fc;strokeColor=#6c8ebf;" vertex="1" parent="1">
          <mxGeometry x="1190" y="100" width="120" height="60" as="geometry" />
        </mxCell>
        <mxCell id="Bte209UNFvbw5NuLRdaG-5" value="Accessability Statement Page&lt;span style=&quot;color: rgba(0, 0, 0, 0); font-family: monospace; font-size: 0px; text-align: start; text-wrap-mode: nowrap;&quot;&gt;%3CmxGraphModel%3E%3Croot%3E%3CmxCell%20id%3D%220%22%2F%3E%3CmxCell%20id%3D%221%22%20parent%3D%220%22%2F%3E%3CmxCell%20id%3D%222%22%20value%3D%22Website%20Privacy%20Notice%20Page%22%20style%3D%22rounded%3D1%3BwhiteSpace%3Dwrap%3Bhtml%3D1%3BfillColor%3D%23dae8fc%3BstrokeColor%3D%236c8ebf%3B%22%20vertex%3D%221%22%20parent%3D%221%22%3E%3CmxGeometry%20x%3D%221000%22%20y%3D%22-130%22%20width%3D%22120%22%20height%3D%2260%22%20as%3D%22geometry%22%2F%3E%3C%2FmxCell%3E%3C%2Froot%3E%3C%2FmxGraphModel%3E&lt;/span&gt;" style="rounded=1;whiteSpace=wrap;html=1;fillColor=#dae8fc;strokeColor=#6c8ebf;" vertex="1" parent="1">
          <mxGeometry x="1350" y="100" width="120" height="60" as="geometry" />
        </mxCell>
        <mxCell id="Bte209UNFvbw5NuLRdaG-6" value="Cookie Use Page" style="rounded=1;whiteSpace=wrap;html=1;fillColor=#dae8fc;strokeColor=#6c8ebf;" vertex="1" parent="1">
          <mxGeometry x="1510" y="100" width="120" height="60" as="geometry" />
        </mxCell>
        <mxCell id="Bte209UNFvbw5NuLRdaG-7" value="Copyright Page" style="rounded=1;whiteSpace=wrap;html=1;fillColor=#dae8fc;strokeColor=#6c8ebf;" vertex="1" parent="1">
          <mxGeometry x="390" y="859" width="120" height="60" as="geometry" />
        </mxCell>
        <mxCell id="Bte209UNFvbw5NuLRdaG-8" value="About Page&lt;span style=&quot;color: rgba(0, 0, 0, 0); font-family: monospace; font-size: 0px; text-align: start; text-wrap-mode: nowrap;&quot;&gt;%3CmxGraphModel%3E%3Croot%3E%3CmxCell%20id%3D%220%22%2F%3E%3CmxCell%20id%3D%221%22%20parent%3D%220%22%2F%3E%3CmxCell%20id%3D%222%22%20value%3D%22Copyright%20Page%22%20style%3D%22rounded%3D1%3BwhiteSpace%3Dwrap%3Bhtml%3D1%3BfillColor%3D%23dae8fc%3BstrokeColor%3D%236c8ebf%3B%22%20vertex%3D%221%22%20parent%3D%221%22%3E%3CmxGeometry%20x%3D%22520%22%20y%3D%22-130%22%20width%3D%22120%22%20height%3D%2260%22%20as%3D%22geometry%22%2F%3E%3C%2FmxCell%3E%3C%2Froot%3E%3C%2FmxGraphModel%3E&lt;/span&gt;" style="rounded=1;whiteSpace=wrap;html=1;fillColor=#dae8fc;strokeColor=#6c8ebf;" vertex="1" parent="1">
          <mxGeometry x="550" y="859" width="120" height="60" as="geometry" />
        </mxCell>
        <mxCell id="Bte209UNFvbw5NuLRdaG-9" value="Contact Page" style="rounded=1;whiteSpace=wrap;html=1;fillColor=#dae8fc;strokeColor=#6c8ebf;" vertex="1" parent="1">
          <mxGeometry x="710" y="859" width="120" height="60" as="geometry" />
        </mxCell>
        <mxCell id="Bte209UNFvbw5NuLRdaG-10" value="Website Privacy Notice Page" style="rounded=1;whiteSpace=wrap;html=1;fillColor=#dae8fc;strokeColor=#6c8ebf;" vertex="1" parent="1">
          <mxGeometry x="870" y="859" width="120" height="60" as="geometry" />
        </mxCell>
        <mxCell id="Bte209UNFvbw5NuLRdaG-11" value="Accessability Statement Page&lt;span style=&quot;color: rgba(0, 0, 0, 0); font-family: monospace; font-size: 0px; text-align: start; text-wrap-mode: nowrap;&quot;&gt;%3CmxGraphModel%3E%3Croot%3E%3CmxCell%20id%3D%220%22%2F%3E%3CmxCell%20id%3D%221%22%20parent%3D%220%22%2F%3E%3CmxCell%20id%3D%222%22%20value%3D%22Website%20Privacy%20Notice%20Page%22%20style%3D%22rounded%3D1%3BwhiteSpace%3Dwrap%3Bhtml%3D1%3BfillColor%3D%23dae8fc%3BstrokeColor%3D%236c8ebf%3B%22%20vertex%3D%221%22%20parent%3D%221%22%3E%3CmxGeometry%20x%3D%221000%22%20y%3D%22-130%22%20width%3D%22120%22%20height%3D%2260%22%20as%3D%22geometry%22%2F%3E%3C%2FmxCell%3E%3C%2Froot%3E%3C%2FmxGraphModel%3E&lt;/span&gt;" style="rounded=1;whiteSpace=wrap;html=1;fillColor=#dae8fc;strokeColor=#6c8ebf;" vertex="1" parent="1">
          <mxGeometry x="1030" y="859" width="120" height="60" as="geometry" />
        </mxCell>
        <mxCell id="Bte209UNFvbw5NuLRdaG-12" value="Cookie Use Page" style="rounded=1;whiteSpace=wrap;html=1;fillColor=#dae8fc;strokeColor=#6c8ebf;" vertex="1" parent="1">
          <mxGeometry x="1190" y="859" width="120" height="60" as="geometry" />
        </mxCell>
      </root>
    </mxGraphModel>
  </diagram>
</mxfile>
